<svg width="337" height="337" viewBox="0 0 337 337" fill="none" xmlns="http://www.w3.org/2000/svg">
<rect width="336.866" height="336.866" rx="43" fill="url(#paint0_linear_4_296)"/>
<g style="mix-blend-mode:hard-light">
<mask id="path-2-inside-1_4_296" fill="white">
<path fill-rule="evenodd" clip-rule="evenodd" d="M150.602 86.2691C145.03 88.7855 142.008 85.014 147.056 81.5628C147.481 81.2719 147.882 80.996 148.249 80.7353C149.766 79.657 149.655 77.7053 147.936 76.9923C146.99 76.5686 145.933 76.3266 144.765 76.2663C143.613 76.1815 142.38 76.2722 141.066 76.5384C138.237 77.1118 135.959 78.2847 134.23 80.0569C132.521 81.8251 131.397 84.1008 130.858 86.8841C130.339 89.6633 130.44 92.8685 131.162 96.4996C131.892 100.172 133.012 103.213 134.522 105.623C136.031 108.034 137.904 109.734 140.14 110.724C142.376 111.713 144.949 111.914 147.859 111.324C150.425 110.804 152.482 109.994 154.029 108.895C155.597 107.792 156.667 106.461 157.24 104.902C157.302 104.732 157.359 104.561 157.41 104.387C158.098 102.054 159.791 99.7292 162.221 99.7088L162.532 99.7062C165.256 99.6833 167.012 96.8116 165.794 94.3737C164.495 91.7727 160.839 91.6325 159.344 94.1265L154.847 101.634C153.508 103.868 150.653 104.658 148.358 103.429C147.07 102.739 146.159 101.509 145.874 100.075L145.627 98.8351C144.8 94.6755 148.388 90.9739 152.567 91.6759C154.288 91.9651 156.051 91.4965 157.402 90.3903L158.692 89.3341C163.396 85.4825 170.438 86.8443 173.371 92.1728L173.823 92.9954C174.296 93.8542 174.665 94.7736 174.812 95.743C175.504 100.329 174.282 103.708 172.976 107.319C172.808 107.782 172.639 108.249 172.473 108.722C171.041 112.817 168.712 116.293 165.483 119.151L292.105 184.628C295.523 186.395 297.519 190.069 297.144 193.902C296.769 197.735 294.099 200.951 290.403 202.022L51.6873 271.145C47.8451 272.257 43.7205 270.814 41.4078 267.548C39.095 264.281 39.1009 259.908 41.4224 256.648L138.512 120.313C138.269 120.208 138.017 120.112 137.757 120.027C135.827 119.395 133.924 119.363 132.113 119.333C129.156 119.284 126.444 119.24 124.262 116.589C121.78 113.556 121.589 111.999 121.219 108.994C121.067 107.761 120.885 106.283 120.502 104.36C120.115 102.411 119.246 100.011 118.354 97.5438C116.874 93.4518 115.329 89.1781 115.803 86.4869C116.294 83.7755 118.62 81.6422 120.838 79.6083C122.152 78.4033 123.428 77.2331 124.262 75.9982C125.267 74.4965 125.256 73.2867 125.245 72.2144C125.233 70.9023 125.222 69.7962 127.081 68.6136C130.454 66.4443 133.574 64.9302 137.757 64.0824C139.994 63.629 142.313 64.5514 144.543 65.4386C145.98 66.0101 147.379 66.567 148.697 66.7322C150.283 66.9186 151.722 66.0285 153.094 65.1804C154.646 64.2206 156.111 63.3145 157.603 64.0824C159.086 64.8281 158.593 66.6908 158.081 68.6298C157.616 70.3884 157.135 72.2096 158.095 73.3171C158.556 73.848 159.341 74.2108 160.289 74.4909C165.742 76.1007 165.434 79.5705 160.252 81.9107L150.602 86.2691ZM152.225 133.471L72.4006 245.561L262.525 190.508L152.225 133.471Z"/>
</mask>
<path fill-rule="evenodd" clip-rule="evenodd" d="M150.602 86.2691C145.03 88.7855 142.008 85.014 147.056 81.5628C147.481 81.2719 147.882 80.996 148.249 80.7353C149.766 79.657 149.655 77.7053 147.936 76.9923C146.99 76.5686 145.933 76.3266 144.765 76.2663C143.613 76.1815 142.38 76.2722 141.066 76.5384C138.237 77.1118 135.959 78.2847 134.23 80.0569C132.521 81.8251 131.397 84.1008 130.858 86.8841C130.339 89.6633 130.44 92.8685 131.162 96.4996C131.892 100.172 133.012 103.213 134.522 105.623C136.031 108.034 137.904 109.734 140.14 110.724C142.376 111.713 144.949 111.914 147.859 111.324C150.425 110.804 152.482 109.994 154.029 108.895C155.597 107.792 156.667 106.461 157.24 104.902C157.302 104.732 157.359 104.561 157.41 104.387C158.098 102.054 159.791 99.7292 162.221 99.7088L162.532 99.7062C165.256 99.6833 167.012 96.8116 165.794 94.3737C164.495 91.7727 160.839 91.6325 159.344 94.1265L154.847 101.634C153.508 103.868 150.653 104.658 148.358 103.429C147.07 102.739 146.159 101.509 145.874 100.075L145.627 98.8351C144.8 94.6755 148.388 90.9739 152.567 91.6759C154.288 91.9651 156.051 91.4965 157.402 90.3903L158.692 89.3341C163.396 85.4825 170.438 86.8443 173.371 92.1728L173.823 92.9954C174.296 93.8542 174.665 94.7736 174.812 95.743C175.504 100.329 174.282 103.708 172.976 107.319C172.808 107.782 172.639 108.249 172.473 108.722C171.041 112.817 168.712 116.293 165.483 119.151L292.105 184.628C295.523 186.395 297.519 190.069 297.144 193.902C296.769 197.735 294.099 200.951 290.403 202.022L51.6873 271.145C47.8451 272.257 43.7205 270.814 41.4078 267.548C39.095 264.281 39.1009 259.908 41.4224 256.648L138.512 120.313C138.269 120.208 138.017 120.112 137.757 120.027C135.827 119.395 133.924 119.363 132.113 119.333C129.156 119.284 126.444 119.24 124.262 116.589C121.78 113.556 121.589 111.999 121.219 108.994C121.067 107.761 120.885 106.283 120.502 104.36C120.115 102.411 119.246 100.011 118.354 97.5438C116.874 93.4518 115.329 89.1781 115.803 86.4869C116.294 83.7755 118.62 81.6422 120.838 79.6083C122.152 78.4033 123.428 77.2331 124.262 75.9982C125.267 74.4965 125.256 73.2867 125.245 72.2144C125.233 70.9023 125.222 69.7962 127.081 68.6136C130.454 66.4443 133.574 64.9302 137.757 64.0824C139.994 63.629 142.313 64.5514 144.543 65.4386C145.98 66.0101 147.379 66.567 148.697 66.7322C150.283 66.9186 151.722 66.0285 153.094 65.1804C154.646 64.2206 156.111 63.3145 157.603 64.0824C159.086 64.8281 158.593 66.6908 158.081 68.6298C157.616 70.3884 157.135 72.2096 158.095 73.3171C158.556 73.848 159.341 74.2108 160.289 74.4909C165.742 76.1007 165.434 79.5705 160.252 81.9107L150.602 86.2691ZM152.225 133.471L72.4006 245.561L262.525 190.508L152.225 133.471Z" fill="url(#paint1_linear_4_296)"/>
<path d="M147.056 81.5628L138.589 69.1806L138.589 69.1807L147.056 81.5628ZM150.602 86.2691L144.428 72.5987L144.428 72.5987L150.602 86.2691ZM148.249 80.7353L156.938 92.9622L156.938 92.962L148.249 80.7353ZM147.936 76.9923L141.806 90.6825L141.996 90.7677L142.189 90.8476L147.936 76.9923ZM144.765 76.2663L143.663 91.2258L143.827 91.2379L143.991 91.2463L144.765 76.2663ZM141.066 76.5384L138.087 61.8374L138.087 61.8374L141.066 76.5384ZM134.23 80.0569L123.492 69.5829L123.467 69.6085L123.443 69.6341L134.23 80.0569ZM130.858 86.8841L116.132 84.0295L116.122 84.0791L116.113 84.1287L130.858 86.8841ZM131.162 96.4996L145.874 93.5737L145.874 93.5736L131.162 96.4996ZM134.522 105.623L121.809 113.584L121.809 113.584L134.522 105.623ZM147.859 111.324L144.879 96.6227L144.879 96.6227L147.859 111.324ZM154.029 108.895L145.397 96.6277L145.371 96.6465L145.344 96.6654L154.029 108.895ZM157.24 104.902L171.319 110.075V110.075L157.24 104.902ZM157.41 104.387L143.022 100.146L143.021 100.148L157.41 104.387ZM162.221 99.7088L162.095 84.7093H162.095L162.221 99.7088ZM162.532 99.7062L162.658 114.706L162.659 114.706L162.532 99.7062ZM165.794 94.3737L179.213 87.6706L179.213 87.6703L165.794 94.3737ZM159.344 94.1265L172.212 101.836L172.212 101.836L159.344 94.1265ZM154.847 101.634L141.979 93.9243L141.979 93.9244L154.847 101.634ZM148.358 103.429L141.278 116.652L141.278 116.652L148.358 103.429ZM145.874 100.075L131.162 103.001L131.162 103.001L145.874 100.075ZM145.627 98.8351L160.339 95.9094L160.339 95.909L145.627 98.8351ZM152.567 91.6759L150.082 106.469L150.082 106.469L152.567 91.6759ZM157.402 90.3903L166.904 101.996L166.904 101.996L157.402 90.3903ZM158.692 89.3341L149.19 77.7278L149.19 77.7279L158.692 89.3341ZM173.371 92.1728L160.229 99.4048L160.229 99.405L173.371 92.1728ZM173.823 92.9954L186.965 85.7636L186.965 85.7632L173.823 92.9954ZM174.812 95.743L189.644 93.5039L189.644 93.5035L174.812 95.743ZM172.976 107.319L187.081 112.422L187.081 112.421L172.976 107.319ZM172.473 108.722L158.321 103.75L158.317 103.761L158.313 103.772L172.473 108.722ZM165.483 119.151L155.54 107.92L139.158 122.425L158.594 132.475L165.483 119.151ZM292.105 184.628L285.215 197.952L285.215 197.952L292.105 184.628ZM297.144 193.902L312.073 195.363L297.144 193.902ZM290.403 202.022L286.231 187.613L286.231 187.613L290.403 202.022ZM51.6873 271.145L55.8592 285.553L55.8593 285.553L51.6873 271.145ZM41.4224 256.648L29.2041 247.947L29.204 247.947L41.4224 256.648ZM138.512 120.313L150.731 129.014L161.514 113.871L144.435 106.532L138.512 120.313ZM137.757 120.027L133.087 134.282L133.088 134.282L137.757 120.027ZM132.113 119.333L131.865 134.331L131.865 134.331L132.113 119.333ZM124.262 116.589L112.652 126.087L112.667 126.106L112.683 126.125L124.262 116.589ZM121.219 108.994L136.106 107.161L136.106 107.161L121.219 108.994ZM120.502 104.36L135.214 101.434L135.214 101.434L120.502 104.36ZM118.354 97.5438L104.248 102.645L104.248 102.645L118.354 97.5438ZM115.803 86.4869L101.043 83.8172L101.037 83.8495L101.031 83.8817L115.803 86.4869ZM120.838 79.6083L110.7 68.5529L110.7 68.5531L120.838 79.6083ZM124.262 75.9982L136.693 84.3915L136.709 84.3687L136.724 84.3457L124.262 75.9982ZM125.245 72.2144L110.246 72.3587V72.3589L125.245 72.2144ZM127.081 68.6136L135.133 81.2694L135.164 81.2499L135.194 81.2302L127.081 68.6136ZM137.757 64.0824L134.778 49.3813L134.777 49.3813L137.757 64.0824ZM144.543 65.4386L150.088 51.501L150.088 51.501L144.543 65.4386ZM148.697 66.7322L146.83 81.6156L146.888 81.6228L146.946 81.6296L148.697 66.7322ZM153.094 65.1804L160.982 77.9385L160.982 77.9385L153.094 65.1804ZM157.603 64.0824L150.739 77.4195L150.8 77.4511L150.862 77.4822L157.603 64.0824ZM158.081 68.6298L143.579 64.7981V64.7981L158.081 68.6298ZM158.095 73.3171L169.429 63.4912L169.429 63.4909L158.095 73.3171ZM160.289 74.4909L164.537 60.1048L164.537 60.1048L160.289 74.4909ZM160.252 81.9107L166.426 95.5812L166.426 95.5811L160.252 81.9107ZM72.4006 245.561L60.1822 236.86L35.192 271.952L76.5726 259.97L72.4006 245.561ZM152.225 133.471L159.115 120.147L147.555 114.17L140.006 124.77L152.225 133.471ZM262.525 190.508L266.698 204.916L302.818 194.457L269.415 177.184L262.525 190.508ZM138.589 69.1807C135.925 71.0025 132.732 73.9062 130.89 78.2463C128.865 83.0166 128.62 89.7009 132.988 95.3399C136.912 100.405 142.44 101.856 146.174 102.059C150.102 102.272 153.744 101.309 156.776 99.9396L144.428 72.5987C144.673 72.4878 145.849 71.9968 147.8 72.1027C149.558 72.1982 153.602 72.9627 156.705 76.9678C160.252 81.547 159.851 86.7986 158.504 89.9698C157.341 92.7107 155.663 93.8488 155.522 93.945L138.589 69.1807ZM139.56 68.5083C139.308 68.6869 139 68.8998 138.589 69.1806L155.522 93.945C155.963 93.6439 156.455 93.3051 156.938 92.9622L139.56 68.5083ZM142.189 90.8476C138.365 89.2615 134.756 85.339 134.347 79.8382C133.959 74.6065 136.648 70.5773 139.559 68.5085L156.938 92.962C161.366 89.815 164.759 84.2707 164.265 77.6154C163.75 70.691 159.226 65.436 153.683 63.137L142.189 90.8476ZM143.991 91.2463C143.545 91.2233 142.754 91.1067 141.806 90.6825L154.066 63.3021C151.227 62.0305 148.32 61.4299 145.538 61.2863L143.991 91.2463ZM144.046 91.2395C144.227 91.2029 144.075 91.2561 143.663 91.2258L145.866 61.3068C143.15 61.1069 140.533 61.3415 138.087 61.8374L144.046 91.2395ZM144.968 90.5309C144.664 90.8421 144.346 91.0586 144.1 91.1854C143.87 91.3037 143.815 91.2862 144.046 91.2395L138.087 61.8374C132.809 62.9072 127.656 65.3148 123.492 69.5829L144.968 90.5309ZM145.584 89.7387C145.628 89.5099 145.65 89.5397 145.555 89.7325C145.452 89.9393 145.275 90.2131 145.017 90.4797L123.443 69.6341C119.422 73.7955 117.138 78.8423 116.132 84.0295L145.584 89.7387ZM145.874 93.5736C145.415 91.2662 145.525 90.0575 145.603 89.6395L116.113 84.1287C115.152 89.2692 115.465 94.4708 116.45 99.4256L145.874 93.5736ZM147.235 97.6621C146.944 97.1973 146.355 95.9938 145.874 93.5737L116.45 99.4255C117.429 104.349 119.081 109.228 121.809 113.584L147.235 97.6621ZM146.212 97.0076C146.612 97.1847 146.93 97.4087 147.141 97.6001C147.338 97.7794 147.35 97.8458 147.235 97.6619L121.809 113.584C124.642 118.108 128.668 122.049 134.068 124.44L146.212 97.0076ZM144.879 96.6227C144.586 96.682 144.62 96.6387 144.909 96.6612C145.223 96.6856 145.691 96.777 146.212 97.0076L134.068 124.44C139.709 126.937 145.546 127.097 150.838 126.025L144.879 96.6227ZM145.344 96.6654C145.707 96.4077 145.911 96.3375 145.833 96.3686C145.751 96.4005 145.456 96.5057 144.879 96.6227L150.838 126.025C154.727 125.237 158.94 123.805 162.714 121.125L145.344 96.6654ZM143.16 99.7293C143.451 98.9368 143.86 98.2388 144.317 97.6709C144.762 97.1175 145.17 96.7874 145.397 96.6277L162.661 121.163C166.328 118.583 169.539 114.921 171.319 110.075L143.16 99.7293ZM143.021 100.148C143.064 100.004 143.11 99.8646 143.16 99.7293L171.319 110.075C171.494 109.6 171.654 109.117 171.798 108.626L143.021 100.148ZM162.095 84.7093C155.713 84.763 150.996 87.9316 148.172 90.9721C145.452 93.9002 143.87 97.2678 143.022 100.146L171.798 108.629C171.637 109.173 171.246 110.212 170.152 111.389C168.954 112.679 166.299 114.675 162.347 114.708L162.095 84.7093ZM162.407 84.7067L162.095 84.7093L162.347 114.708L162.658 114.706L162.407 84.7067ZM152.375 101.077C148.646 93.6109 154.014 84.7772 162.406 84.7067L162.659 114.706C176.497 114.589 185.378 100.012 179.213 87.6706L152.375 101.077ZM172.212 101.836C167.618 109.503 156.368 109.068 152.375 101.077L179.213 87.6703C172.622 74.4769 154.059 73.7618 146.477 86.4173L172.212 101.836ZM167.714 109.343L172.212 101.836L146.477 86.4171L141.979 93.9243L167.714 109.343ZM141.278 116.652C150.634 121.662 162.265 118.437 167.714 109.343L141.979 93.9244C144.751 89.2985 150.673 87.6532 155.439 90.2052L141.278 116.652ZM131.162 103.001C132.322 108.832 136.031 113.843 141.278 116.652L155.439 90.2052C158.11 91.6356 159.996 94.1849 160.586 97.149L131.162 103.001ZM130.915 101.761L131.162 103.001L160.586 97.1491L160.339 95.9094L130.915 101.761ZM155.052 76.8832C140.498 74.4382 128.044 87.3262 130.915 101.761L160.339 95.909C161.555 102.025 156.278 107.51 150.082 106.469L155.052 76.8832ZM147.9 78.784C149.896 77.1494 152.503 76.4551 155.052 76.8832L150.082 106.469C156.073 107.475 162.206 105.844 166.904 101.996L147.9 78.784ZM149.19 77.7279L147.9 78.7841L166.904 101.996L168.194 100.94L149.19 77.7279ZM186.512 84.9409C179.062 71.4021 161.155 67.9316 149.19 77.7278L168.194 100.94C165.638 103.033 161.815 102.286 160.229 99.4048L186.512 84.9409ZM186.965 85.7632L186.512 84.9406L160.229 99.405L160.682 100.228L186.965 85.7632ZM189.644 93.5035C189.154 90.2622 187.994 87.633 186.965 85.7636L160.682 100.227C160.598 100.075 160.177 99.2849 159.98 97.9826L189.644 93.5035ZM187.081 112.421C188.367 108.866 190.962 102.232 189.644 93.5039L159.98 97.9822C160.031 98.3179 160.023 98.5221 159.947 98.8908C159.82 99.5159 159.582 100.249 158.87 102.216L187.081 112.421ZM186.625 113.694C186.764 113.297 186.91 112.895 187.081 112.422L158.87 102.216C158.706 102.668 158.514 103.2 158.321 103.75L186.625 113.694ZM175.427 130.381C180.586 125.814 184.36 120.171 186.632 113.673L158.313 103.772C157.722 105.462 156.837 106.772 155.54 107.92L175.427 130.381ZM298.995 171.304L172.373 105.827L158.594 132.475L285.215 197.952L298.995 171.304ZM312.073 195.363C313.045 185.427 307.87 175.893 298.995 171.304L285.215 197.952C283.176 196.897 281.994 194.712 282.216 192.441L312.073 195.363ZM294.575 216.43C304.175 213.65 311.101 205.299 312.073 195.363L282.216 192.441C282.438 190.17 284.022 188.253 286.231 187.613L294.575 216.43ZM55.8593 285.553L294.575 216.43L286.231 187.613L47.5152 256.736L55.8593 285.553ZM29.1659 276.216C35.1671 284.691 45.8773 288.443 55.8592 285.553L47.5153 256.736C49.813 256.071 52.2739 256.937 53.6496 258.879L29.1659 276.216ZM29.204 247.947C23.1824 256.403 23.167 267.744 29.1659 276.216L53.6496 258.879C55.023 260.819 55.0195 263.413 53.6409 265.349L29.204 247.947ZM126.294 111.612L29.2041 247.947L53.6408 265.349L150.731 129.014L126.294 111.612ZM133.088 134.282C132.906 134.222 132.739 134.158 132.59 134.094L144.435 106.532C143.798 106.258 143.129 106.002 142.427 105.773L133.088 134.282ZM131.865 134.331C132.341 134.339 132.649 134.345 132.936 134.355C133.206 134.365 133.364 134.377 133.456 134.386C133.629 134.402 133.446 134.399 133.087 134.282L142.428 105.773C138.028 104.331 133.91 104.361 132.361 104.335L131.865 134.331ZM112.683 126.125C119.768 134.727 129.563 134.293 131.865 134.331L132.361 104.335C131.539 104.322 131.256 104.313 131.061 104.298C130.917 104.287 131.208 104.297 131.726 104.434C132.293 104.584 133.076 104.87 133.915 105.391C134.763 105.919 135.403 106.523 135.84 107.053L112.683 126.125ZM106.331 110.827C106.475 111.994 106.759 114.818 107.806 117.779C108.967 121.066 110.715 123.72 112.652 126.087L135.872 107.091C135.729 106.917 135.649 106.81 135.614 106.761C135.58 106.714 135.597 106.734 135.645 106.813C135.694 106.894 135.768 107.027 135.853 107.205C135.939 107.386 136.02 107.581 136.091 107.783C136.162 107.983 136.21 108.153 136.241 108.275C136.27 108.393 136.279 108.449 136.273 108.413C136.265 108.371 136.248 108.266 136.218 108.046C136.204 107.939 136.188 107.815 136.169 107.665C136.149 107.513 136.13 107.353 136.106 107.161L106.331 110.827ZM105.79 107.286C106.058 108.631 106.185 109.644 106.331 110.827L136.106 107.161C135.948 105.878 135.711 103.935 135.214 101.434L105.79 107.286ZM104.248 102.645C105.278 105.492 105.673 106.695 105.79 107.286L135.214 101.434C134.557 98.1281 133.215 94.5289 132.46 92.4421L104.248 102.645ZM101.031 83.8817C100.19 88.6536 101.25 93.1016 101.854 95.3625C102.565 98.0212 103.563 100.749 104.248 102.645L132.46 92.4422C132.081 91.3939 131.758 90.5003 131.468 89.6468C131.18 88.7975 130.976 88.137 130.837 87.6176C130.693 87.076 130.676 86.8954 130.686 86.9851C130.69 87.0184 130.798 87.8286 130.575 89.092L101.031 83.8817ZM110.7 68.5531C109.755 69.4193 107.781 71.192 106.055 73.3046C104.263 75.4984 101.91 79.0192 101.043 83.8172L130.564 89.1565C130.374 90.2045 130.039 91.0065 129.767 91.5241C129.507 92.0191 129.294 92.2773 129.29 92.2825C129.287 92.2859 129.391 92.1607 129.698 91.8582C130.02 91.5421 130.389 91.202 130.976 90.6635L110.7 68.5531ZM111.83 67.6049C111.994 67.3616 112.113 67.2196 112.141 67.1872C112.169 67.1539 112.144 67.1864 112.034 67.2982C111.924 67.41 111.767 67.5632 111.535 67.7811C111.297 68.0047 111.041 68.2403 110.7 68.5529L130.976 90.6636C131.911 89.8061 134.669 87.3908 136.693 84.3915L111.83 67.6049ZM110.246 72.3589C110.252 73.0059 110.204 72.1427 110.411 71.0784C110.665 69.7743 111.174 68.584 111.799 67.6507L136.724 84.3457C140.37 78.902 140.261 73.7919 140.245 72.07L110.246 72.3589ZM119.029 55.9579C116.223 57.7432 113.169 60.5771 111.476 64.943C110.035 68.658 110.245 72.1994 110.246 72.3587L140.245 72.0702C140.234 70.9173 140.431 73.2496 139.447 75.7879C138.211 78.977 136.08 80.6666 135.133 81.2694L119.029 55.9579ZM134.777 49.3813C128.265 50.7014 123.408 53.142 118.968 55.997L135.194 81.2302C137.501 79.7466 138.884 79.159 140.737 78.7834L134.777 49.3813ZM150.088 51.501C148.952 51.049 142.212 47.8744 134.778 49.3813L140.737 78.7834C138.902 79.1553 137.633 78.8395 137.511 78.809C137.428 78.7883 137.487 78.7979 137.767 78.8987C138.066 79.0065 138.403 79.1392 138.999 79.3763L150.088 51.501ZM150.564 51.8488C150.933 51.8952 151.193 51.954 151.317 51.9849C151.441 52.0157 151.48 52.0314 151.406 52.0069C151.332 51.9822 151.197 51.9347 150.965 51.846C150.724 51.754 150.464 51.6507 150.088 51.501L138.999 79.3763C139.948 79.7541 143.237 81.1649 146.83 81.6156L150.564 51.8488ZM145.205 52.4222C144.821 52.6597 144.718 52.7216 144.656 52.7562C144.617 52.7789 144.818 52.6604 145.186 52.5066C145.926 52.1971 147.849 51.5292 150.449 51.8348L146.946 81.6296C154.664 82.5371 160.734 78.0919 160.982 77.9385L145.205 52.4222ZM164.468 50.7453C159.143 48.0047 154 48.6223 150.601 49.7622C147.887 50.6725 145.587 52.1862 145.205 52.4222L160.982 77.9385C161.437 77.6575 161.482 77.6338 161.458 77.6468C161.417 77.6696 160.93 77.9404 160.141 78.2049C159.32 78.4802 157.937 78.8299 156.163 78.7915C154.291 78.751 152.422 78.2856 150.739 77.4195L164.468 50.7453ZM172.583 72.4615C172.678 72.1047 173.583 69.0868 173.59 65.9424C173.594 64.1014 173.332 61.2187 171.802 58.1478C170.136 54.803 167.474 52.2569 164.345 50.6826L150.862 77.4822C148.474 76.2807 146.306 74.2471 144.948 71.5219C143.728 69.0705 143.588 66.9146 143.59 65.8748C143.591 65.3142 143.635 64.8834 143.668 64.6289C143.701 64.3709 143.734 64.2046 143.743 64.165C143.745 64.154 143.729 64.23 143.579 64.7981L172.583 72.4615ZM169.429 63.4909C172.714 67.2803 172.584 71.3368 172.515 72.291C172.473 72.8772 172.391 73.2226 172.404 73.1609C172.42 73.0906 172.452 72.9586 172.583 72.4615L143.579 64.7981C143.44 65.3245 142.771 67.657 142.592 70.1443C142.407 72.7256 142.516 78.2464 146.762 83.1432L169.429 63.4909ZM164.537 60.1048C164.607 60.1255 165.136 60.2807 165.886 60.6672C166.614 61.0426 168.036 61.8841 169.429 63.4912L146.762 83.1429C150.19 87.0969 154.563 88.4402 156.042 88.8769L164.537 60.1048ZM166.426 95.5811C168.805 94.5065 171.52 92.9191 173.874 90.5404C176.181 88.2083 179.07 84.1107 179.251 78.4021C179.445 72.2842 176.443 67.6238 173.319 64.8258C170.422 62.2316 167.13 60.8704 164.537 60.1048L156.042 88.8769C156.023 88.8713 155.753 88.7919 155.317 88.5722C154.892 88.3581 154.15 87.931 153.306 87.1747C151.495 85.5532 149.115 82.2083 149.266 77.4517C149.404 73.1043 151.585 70.4135 152.548 69.4406C153.556 68.4209 154.289 68.1448 154.078 68.2403L166.426 95.5811ZM156.776 99.9396L166.426 95.5812L154.078 68.2403L144.428 72.5987L156.776 99.9396ZM84.619 254.263L164.443 142.172L140.006 124.77L60.1822 236.86L84.619 254.263ZM258.353 176.1L68.2285 231.153L76.5726 259.97L266.698 204.916L258.353 176.1ZM145.335 146.795L255.636 203.832L269.415 177.184L159.115 120.147L145.335 146.795Z" fill="white" mask="url(#path-2-inside-1_4_296)"/>
</g>
<defs>
<linearGradient id="paint0_linear_4_296" x1="31.0519" y1="25.4061" x2="317.106" y2="323.693" gradientUnits="userSpaceOnUse">
<stop offset="0.0709781" stop-color="#593C9D"/>
<stop offset="0.689829" stop-color="#852295"/>
</linearGradient>
<linearGradient id="paint1_linear_4_296" x1="63.4144" y1="79.4606" x2="234.295" y2="300.36" gradientUnits="userSpaceOnUse">
<stop offset="0.0709781" stop-color="#593C9D"/>
<stop offset="1" stop-color="#3C74CD"/>
</linearGradient>
</defs>
</svg>
